<svg width="24" height="24" viewBox="0 0 24 24" fill="none" xmlns="http://www.w3.org/2000/svg">
<path d="M18.8165 9.04721C18.5374 9.04721 18.2698 9.15804 18.0725 9.35534C17.8752 9.55263 17.7644 9.8202 17.7644 10.0992V14.8669C17.7644 15.1459 17.8752 15.4135 18.0725 15.6108C18.2698 15.8081 18.5374 15.9189 18.8165 15.9189C19.0955 15.9189 19.3631 15.8081 19.5604 15.6108C19.7577 15.4135 19.8685 15.1459 19.8685 14.8669V10.0992C19.8685 9.8202 19.7577 9.55263 19.5604 9.35534C19.3631 9.15804 19.0955 9.04721 18.8165 9.04721Z" fill="white"/>
<path d="M5.25203 9.04721C4.97302 9.04721 4.70542 9.15804 4.50813 9.35534C4.31084 9.55263 4.2 9.8202 4.2 10.0992V14.8669C4.2 15.1459 4.31084 15.4135 4.50813 15.6108C4.70542 15.8081 4.97302 15.9189 5.25203 15.9189C5.53104 15.9189 5.79863 15.8081 5.99592 15.6108C6.19321 15.4135 6.30405 15.1459 6.30405 14.8669V10.0992C6.30405 9.8202 6.19321 9.55263 5.99592 9.35534C5.79863 9.15804 5.53104 9.04721 5.25203 9.04721Z" fill="white"/>
<path d="M7.06509 9.04721V16.2099C7.06509 16.3672 7.09606 16.523 7.15625 16.6682C7.21643 16.8135 7.30463 16.9456 7.41583 17.0567C7.52704 17.1679 7.65905 17.2561 7.80434 17.3163C7.94963 17.3764 8.10535 17.4074 8.26261 17.4074H9.02366V19.948C9.02366 20.227 9.13449 20.4946 9.33179 20.6919C9.52908 20.8892 9.79667 21 10.0757 21C10.3547 21 10.6223 20.8892 10.8196 20.6919C11.0169 20.4946 11.1277 20.227 11.1277 19.948V17.4074H12.9408V19.948C12.9408 20.227 13.0516 20.4946 13.2489 20.6919C13.4462 20.8892 13.7138 21 13.9928 21C14.2718 21 14.5394 20.8892 14.7367 20.6919C14.934 20.4946 15.0448 20.227 15.0448 19.948V17.4074H15.8059C16.1235 17.4074 16.428 17.2813 16.6526 17.0567C16.8773 16.8322 17.0034 16.5275 17.0034 16.2099V9.04721H7.06509Z" fill="white"/>
<path d="M16.8691 7.5587C16.5397 6.45364 15.8092 5.51158 14.821 4.91744L14.6531 4.81672L14.4741 4.72718L14.6755 4.38024L15.2687 3.26106C15.2799 3.22918 15.2805 3.1945 15.2705 3.16223C15.2604 3.12996 15.2401 3.10181 15.2127 3.08199H15.1344C15.1058 3.08328 15.0778 3.09098 15.0527 3.10454C15.0275 3.11811 15.0057 3.13718 14.9889 3.16034L14.3845 4.20117L14.1943 4.54812L14.0152 4.46977L13.8249 4.40262C12.6651 4.0001 11.4034 4.0001 10.2436 4.40262L10.0645 4.46977L9.87423 4.54812L9.68397 4.20117L9.07961 3.08199C9.06932 3.06363 9.05552 3.04746 9.03898 3.03443C9.02245 3.02139 9.00351 3.01173 8.98324 3.00602C8.96297 3.0003 8.94178 2.99864 8.92087 3.00111C8.89996 3.00358 8.87974 3.01015 8.86137 3.02044C8.843 3.03073 8.82684 3.04453 8.8138 3.06108C8.80076 3.07761 8.79111 3.09655 8.78539 3.11681C8.77969 3.13708 8.77801 3.15828 8.78049 3.17918C8.78297 3.20009 8.78952 3.22031 8.79982 3.23868L9.39298 4.35786L9.59444 4.7048L9.41537 4.79433L9.24749 4.89506C8.25452 5.49164 7.52616 6.44413 7.21059 7.5587C7.12324 7.84953 7.07433 8.15054 7.0651 8.45404H17.0034C16.9924 8.15151 16.9473 7.85115 16.8691 7.5587ZM9.79589 6.96554C9.70735 6.96554 9.62079 6.93928 9.54717 6.89009C9.47355 6.84091 9.41617 6.77099 9.3823 6.68919C9.34841 6.60739 9.33954 6.51737 9.35681 6.43054C9.37409 6.34369 9.41672 6.26393 9.47933 6.20132C9.54195 6.13871 9.62171 6.09607 9.70855 6.0788C9.79538 6.06153 9.88542 6.0704 9.96723 6.10428C10.049 6.13816 10.1189 6.19554 10.1681 6.26916C10.2173 6.34278 10.2436 6.42933 10.2436 6.51787C10.2436 6.6366 10.1964 6.75047 10.1124 6.83443C10.0285 6.91838 9.91463 6.96554 9.79589 6.96554ZM14.2726 6.96554C14.1841 6.96554 14.0974 6.93928 14.0239 6.89009C13.9503 6.84091 13.8929 6.77099 13.8589 6.68919C13.8252 6.60739 13.8162 6.51737 13.8335 6.43054C13.8508 6.34369 13.8934 6.26393 13.9561 6.20132C14.0187 6.13871 14.0985 6.09607 14.1853 6.0788C14.2722 6.06153 14.3621 6.0704 14.4439 6.10428C14.5258 6.13816 14.5956 6.19554 14.6448 6.26916C14.694 6.34278 14.7203 6.42933 14.7203 6.51787C14.7203 6.6366 14.6732 6.75047 14.5891 6.83443C14.5052 6.91838 14.3913 6.96554 14.2726 6.96554Z" fill="white"/>
</svg>
