<svg width="30" height="30" viewBox="0 0 30 30" fill="none" xmlns="http://www.w3.org/2000/svg">
<path d="M17.5068 10.5601C16.4844 11.1904 15.8682 12.3108 15.8682 13.5012L14.8038 22.0303C14.7618 22.3384 14.3136 22.3384 14.2716 22.0303L13.2072 13.5152C13.2072 12.3108 12.591 11.2044 11.5686 10.5741L0.000427246 3.40354L0.686676 10.4761L6.2747 13.9354C7.05898 14.4255 7.53516 15.2798 7.53516 16.1902L8.7676 28.8368C8.82362 29.3689 9.27179 29.7751 9.80398 29.7751H14.5377H19.2714C19.8036 29.7751 20.2518 29.3689 20.3078 28.8368L21.5402 16.1902C21.5402 15.2658 22.0164 14.4115 22.8007 13.9354L28.3887 10.4761L29.075 3.40354L17.5068 10.5601Z" fill="url(#paint0_linear_2_42)"/>
<path fill-rule="evenodd" clip-rule="evenodd" d="M4.49563 0.224903L0 3.40405L5.12586 6.5692L4.49563 0.224903ZM0.88232 12.4653L5.43397 15.2944C5.7981 15.5184 6.03619 15.8966 6.0782 16.3307L6.58238 21.3866L2.03074 18.5435C1.6666 18.3195 1.42852 17.9413 1.3865 17.5072L0.88232 12.4653ZM24.5789 0.224903L23.9627 6.5692L29.0885 3.40405L24.5789 0.224903ZM28.1922 12.4653L23.6406 15.2944C23.2764 15.5184 23.0383 15.8966 22.9963 16.3307L22.4921 21.3866L27.0438 18.5435C27.4079 18.3195 27.646 17.9413 27.688 17.5072L28.1922 12.4653Z" fill="url(#paint1_linear_2_42)"/>
<defs>
<linearGradient id="paint0_linear_2_42" x1="7.13635" y1="27.374" x2="15.2879" y2="3.79042" gradientUnits="userSpaceOnUse">
<stop stop-color="#6A38FF"/>
<stop offset="1" stop-color="#BB69FF"/>
</linearGradient>
<linearGradient id="paint1_linear_2_42" x1="14.932" y1="-0.696028" x2="12.9222" y2="20.3531" gradientUnits="userSpaceOnUse">
<stop stop-color="#8813BA"/>
<stop offset="1" stop-color="#8D40F7"/>
</linearGradient>
</defs>
</svg>
