<svg width="98" height="17" viewBox="0 0 98 17" fill="none" xmlns="http://www.w3.org/2000/svg">
<path d="M5.25761 16.5192V4.3569H0.310493V0.527405H14.4615V4.32403H9.51442V16.5028L5.25761 16.5192Z" fill="white"/>
<path d="M18.8637 8.49773C18.8637 3.64923 22.5453 0.197754 27.1965 0.197754C31.8807 0.197754 35.5458 3.64923 35.5458 8.49773C35.5458 13.3462 31.8807 16.847 27.1965 16.847C22.5288 16.847 18.8637 13.3462 18.8637 8.49773ZM31.1411 8.49773C31.1411 5.98308 29.7276 3.9615 27.1801 3.9615C24.6326 3.9615 23.2191 5.98308 23.2191 8.49773C23.2191 11.0124 24.6326 13.0833 27.1801 13.0833C29.7276 13.0833 31.1411 11.0288 31.1411 8.49773Z" fill="white"/>
<path d="M41.4664 16.5184V0.52655H48.09C52.4454 0.52655 54.96 2.46595 54.96 5.86812C54.96 7.92256 53.7274 9.61543 51.525 10.5194L55.486 16.5184H50.4238L47.1203 11.1932H45.7233V16.5184H41.4664ZM45.7233 7.72534H47.8927C49.7828 7.72534 50.6704 7.13366 50.6704 5.88455C50.6704 4.61901 49.7993 4.02733 47.8927 4.02733H45.7233V7.72534Z" fill="white"/>
<path d="M60.006 8.49773C60.006 3.64923 63.6876 0.197754 68.3388 0.197754C73.023 0.197754 76.6881 3.64923 76.6881 8.49773C76.6881 13.3462 73.0065 16.847 68.3388 16.847C63.6711 16.847 60.006 13.3462 60.006 8.49773ZM72.2998 8.49773C72.2998 5.98308 70.8864 3.9615 68.3388 3.9615C65.7913 3.9615 64.3779 5.98308 64.3779 8.49773C64.3779 11.0124 65.7913 13.0833 68.3388 13.0833C70.8864 13.0833 72.2998 11.0288 72.2998 8.49773Z" fill="white"/>
<path d="M86.0351 0.525696H81.088L84.8847 7.34646C85.2298 7.95458 85.2134 8.72705 84.8518 9.33517L80.4964 16.5011H85.5092L89.1579 9.97616C89.7003 8.99002 89.7331 7.8231 89.2236 6.82053L86.0351 0.525696Z" fill="white"/>
<path d="M92.4597 0.525696H97.4068L93.6101 7.34646C93.265 7.95458 93.2814 8.72705 93.643 9.33517L97.9985 16.5011H92.9856L89.3369 9.97616C88.7945 8.99002 88.7617 7.8231 89.2712 6.82053L92.4597 0.525696Z" fill="white"/>
</svg>
