<svg width="18" height="18" viewBox="0 0 18 18" fill="none" xmlns="http://www.w3.org/2000/svg">
<path d="M8.51251 13.875L5.73751 13.875C3.39751 13.875 1.50001 11.6925 1.50001 9C1.50001 6.3075 3.39751 4.125 5.73751 4.125L8.51251 4.125C6.17251 4.125 4.50001 6.3075 4.50001 9C4.50001 11.6925 6.17251 13.875 8.51251 13.875Z" stroke="#0A1F59" stroke-width="1.5" stroke-linecap="round" stroke-linejoin="round"/>
<path d="M12.2625 13.875C11.58 13.875 10.95 13.6875 10.41 13.3575C9.09 12.555 8.25 10.905 8.25 9C8.25 7.095 9.09 5.445 10.41 4.6425C10.95 4.3125 11.58 4.125 12.2625 4.125C13.4325 4.125 14.49 4.6725 15.255 5.55C16.0275 6.435 16.5 7.65 16.5 9C16.5 10.35 16.0275 11.565 15.2625 12.45C14.49 13.3275 13.4325 13.875 12.2625 13.875Z" stroke="#0A1F59" stroke-width="1.5" stroke-linecap="round" stroke-linejoin="round"/>
<path d="M12.2625 13.875L8.5125 13.875C6.1725 13.875 4.5 11.6925 4.5 9C4.5 6.3075 6.1725 4.125 8.5125 4.125L12.2625 4.125C14.6025 4.125 16.5 6.3075 16.5 9C16.5 10.35 16.0275 11.565 15.2625 12.45C14.49 13.3275 13.4325 13.875 12.2625 13.875Z" stroke="#0A1F59" stroke-width="1.5" stroke-linecap="round" stroke-linejoin="round"/>
</svg>
