<svg width="17" height="16" viewBox="0 0 17 16" fill="none" xmlns="http://www.w3.org/2000/svg">
<mask id="mask0_11_241" style="mask-type:luminance" maskUnits="userSpaceOnUse" x="1" y="1" width="14" height="15">
<path fill-rule="evenodd" clip-rule="evenodd" d="M1.66669 1.33368H14.5233V15.1477H1.66669V1.33368Z" fill="white"/>
</mask>
<g mask="url(#mask0_11_241)">
<path fill-rule="evenodd" clip-rule="evenodd" d="M5.13484 11.627C5.28751 11.627 5.44017 11.6463 5.58951 11.6863C6.04017 11.8077 6.43151 12.109 6.66351 12.5137C6.81417 12.7677 6.89751 13.0643 6.90017 13.367C6.90017 13.8003 7.24817 14.1477 7.67617 14.1477H8.51151C8.93751 14.1477 9.28551 13.8023 9.28751 13.3763C9.28484 12.9057 9.46884 12.4583 9.80551 12.1217C10.1375 11.7897 10.6015 11.5903 11.0655 11.6037C11.3695 11.611 11.6622 11.693 11.9202 11.8397C12.2915 12.0523 12.7655 11.9257 12.9802 11.559L13.4228 10.821C13.5215 10.651 13.5502 10.4377 13.4975 10.241C13.4455 10.0443 13.3148 9.87368 13.1388 9.77301C12.7268 9.53568 12.4328 9.15301 12.3108 8.69435C12.1902 8.24435 12.2562 7.75301 12.4915 7.34835C12.6448 7.08168 12.8695 6.85701 13.1388 6.70235C13.5002 6.49101 13.6268 6.01835 13.4168 5.65035C13.4082 5.63568 13.4002 5.62035 13.3935 5.60435L13.0028 4.92701C12.7902 4.55701 12.3168 4.42968 11.9455 4.64101C11.5442 4.87835 11.0668 4.94635 10.6082 4.82568C10.1502 4.70701 9.76617 4.41701 9.52684 4.00768C9.37351 3.75168 9.29017 3.45368 9.28751 3.15035C9.29351 2.92235 9.21351 2.71768 9.06817 2.56768C8.92351 2.41835 8.72017 2.33368 8.51151 2.33368H7.67617C7.46951 2.33368 7.27617 2.41435 7.13017 2.55968C6.98484 2.70568 6.90551 2.89968 6.90684 3.10635C6.89284 4.08101 6.09617 4.86568 5.13151 4.86568C4.82217 4.86235 4.52417 4.77901 4.26551 4.62435C3.90217 4.41768 3.42751 4.54501 3.21484 4.91501L2.76351 5.65701C2.55684 6.01568 2.68351 6.48968 3.05151 6.70368C3.59751 7.01968 3.93817 7.60901 3.93817 8.24101C3.93817 8.87301 3.59751 9.46168 3.05017 9.77835C2.68417 9.99035 2.55751 10.4617 2.76951 10.8283L3.19017 11.5537C3.29417 11.741 3.46417 11.8763 3.66084 11.9317C3.85684 11.9863 4.07284 11.963 4.25284 11.863C4.51751 11.7077 4.82551 11.627 5.13484 11.627ZM8.51151 15.1477H7.67617C6.69684 15.1477 5.90017 14.3517 5.90017 13.3723C5.89884 13.2517 5.86417 13.1263 5.79951 13.0177C5.69484 12.835 5.52551 12.7043 5.33017 12.6523C5.13617 12.6003 4.92351 12.629 4.74884 12.7303C4.33017 12.9637 3.83751 13.0203 3.38684 12.8937C2.93684 12.7663 2.54817 12.457 2.32017 12.047L1.90351 11.329C1.41617 10.4837 1.70617 9.40035 2.55017 8.91235C2.78951 8.77435 2.93817 8.51701 2.93817 8.24101C2.93817 7.96501 2.78951 7.70701 2.55017 7.56901C1.70551 7.07835 1.41617 5.99235 1.90284 5.14701L2.35484 4.40501C2.83551 3.56901 3.92217 3.27435 4.76951 3.76101C4.88484 3.82968 5.01017 3.86435 5.13751 3.86568C5.55284 3.86568 5.90017 3.52301 5.90684 3.10168C5.90417 2.63701 6.08751 2.19101 6.42151 1.85435C6.75684 1.51835 7.20217 1.33368 7.67617 1.33368H8.51151C8.98884 1.33368 9.45284 1.52968 9.78551 1.87035C10.1175 2.21301 10.3008 2.68301 10.2868 3.15968C10.2882 3.26701 10.3235 3.39101 10.3875 3.49968C10.4935 3.67968 10.6608 3.80635 10.8595 3.85835C11.0582 3.90768 11.2662 3.88101 11.4428 3.77635C12.2962 3.28901 13.3822 3.58101 13.8695 4.42768L14.2848 5.14701C14.2955 5.16635 14.3048 5.18501 14.3128 5.20435C14.7542 6.03835 14.4595 7.08835 13.6395 7.56768C13.5202 7.63635 13.4235 7.73235 13.3568 7.84835C13.2535 8.02768 13.2248 8.24101 13.2768 8.43701C13.3302 8.63701 13.4575 8.80301 13.6368 8.90568C14.0415 9.13835 14.3435 9.53034 14.4642 9.98301C14.5848 10.435 14.5188 10.9257 14.2835 11.3303L13.8408 12.0677C13.3535 12.905 12.2675 13.195 11.4228 12.707C11.3102 12.6423 11.1802 12.607 11.0508 12.6037H11.0468C10.8542 12.6037 10.6562 12.6857 10.5122 12.829C10.3662 12.975 10.2862 13.1697 10.2875 13.3763C10.2828 14.3557 9.48617 15.1477 8.51151 15.1477Z" fill="#A0AEC0"/>
</g>
<path fill-rule="evenodd" clip-rule="evenodd" d="M8.09675 6.98309C7.40342 6.98309 6.83942 7.54776 6.83942 8.24109C6.83942 8.93443 7.40342 9.49776 8.09675 9.49776C8.79008 9.49776 9.35408 8.93443 9.35408 8.24109C9.35408 7.54776 8.79008 6.98309 8.09675 6.98309ZM8.09675 10.4978C6.85208 10.4978 5.83942 9.48576 5.83942 8.24109C5.83942 6.99643 6.85208 5.98309 8.09675 5.98309C9.34142 5.98309 10.3541 6.99643 10.3541 8.24109C10.3541 9.48576 9.34142 10.4978 8.09675 10.4978Z" fill="#A0AEC0"/>
</svg>
