<svg width="24" height="24" viewBox="0 0 24 24" fill="none" xmlns="http://www.w3.org/2000/svg">
<path d="M3 15.4C3.0005 15.8772 3.1903 16.3348 3.52776 16.6722C3.86521 17.0097 4.32276 17.1995 4.8 17.2H9.8205L9.6705 18.4H7.8C7.64087 18.4 7.48826 18.4632 7.37574 18.5757C7.26321 18.6883 7.2 18.8409 7.2 19C7.2 19.1591 7.26321 19.3117 7.37574 19.4243C7.48826 19.5368 7.64087 19.6 7.8 19.6H16.2C16.3591 19.6 16.5117 19.5368 16.6243 19.4243C16.7368 19.3117 16.8 19.1591 16.8 19C16.8 18.8409 16.7368 18.6883 16.6243 18.5757C16.5117 18.4632 16.3591 18.4 16.2 18.4H14.3295L14.1795 17.2H19.2C19.6772 17.1995 20.1348 17.0097 20.4722 16.6722C20.8097 16.3348 20.9995 15.8772 21 15.4V13.6H3V15.4ZM12 14.8C12.1187 14.8 12.2347 14.8352 12.3333 14.9011C12.432 14.967 12.5089 15.0608 12.5543 15.1704C12.5997 15.28 12.6116 15.4007 12.5885 15.5171C12.5653 15.6334 12.5082 15.7404 12.4243 15.8243C12.3404 15.9082 12.2334 15.9653 12.1171 15.9885C12.0007 16.0116 11.88 15.9997 11.7704 15.9543C11.6608 15.9089 11.567 15.832 11.5011 15.7333C11.4352 15.6347 11.4 15.5187 11.4 15.4C11.4 15.2409 11.4632 15.0883 11.5757 14.9757C11.6883 14.8632 11.8409 14.8 12 14.8Z" fill="white"/>
<path d="M21 5.8C20.9995 5.32276 20.8097 4.86521 20.4722 4.52776C20.1348 4.1903 19.6772 4.0005 19.2 4H4.8C4.32276 4.0005 3.86521 4.1903 3.52776 4.52776C3.1903 4.86521 3.0005 5.32276 3 5.8V13H21V5.8Z" fill="white"/>
</svg>
